<mxfile host="app.diagrams.net" modified="2023-03-08T05:04:00.169Z" agent="5.0 (Macintosh; Intel Mac OS X 10_15_7) AppleWebKit/537.36 (KHTML, like Gecko) Chrome/110.0.0.0 Safari/537.36" etag="caOHOGFJHEIA4h6niVf3" version="21.0.2" type="github">
  <diagram id="C5RBs43oDa-KdzZeNtuy" name="Page-1">
    <mxGraphModel dx="1257" dy="806" grid="1" gridSize="10" guides="1" tooltips="1" connect="1" arrows="1" fold="1" page="1" pageScale="1" pageWidth="827" pageHeight="1169" math="0" shadow="0">
      <root>
        <mxCell id="WIyWlLk6GJQsqaUBKTNV-0" />
        <mxCell id="WIyWlLk6GJQsqaUBKTNV-1" parent="WIyWlLk6GJQsqaUBKTNV-0" />
        <mxCell id="WIyWlLk6GJQsqaUBKTNV-2" value="" style="rounded=0;html=1;jettySize=auto;orthogonalLoop=1;fontSize=11;endArrow=block;endFill=0;endSize=8;strokeWidth=1;shadow=0;labelBackgroundColor=none;edgeStyle=orthogonalEdgeStyle;" parent="WIyWlLk6GJQsqaUBKTNV-1" edge="1">
          <mxGeometry relative="1" as="geometry">
            <mxPoint x="414" y="80" as="sourcePoint" />
            <mxPoint x="414" y="130" as="targetPoint" />
          </mxGeometry>
        </mxCell>
        <mxCell id="WIyWlLk6GJQsqaUBKTNV-5" value="No" style="edgeStyle=orthogonalEdgeStyle;rounded=0;html=1;jettySize=auto;orthogonalLoop=1;fontSize=11;endArrow=block;endFill=1;endSize=8;strokeWidth=1;shadow=0;labelBackgroundColor=none;exitX=0;exitY=0.5;exitDx=0;exitDy=0;entryX=0;entryY=0.75;entryDx=0;entryDy=0;fillColor=#f8cecc;strokeColor=#b85450;" parent="WIyWlLk6GJQsqaUBKTNV-1" source="hhmNKbWDUIImjEml3qDQ-20" target="WIyWlLk6GJQsqaUBKTNV-11" edge="1">
          <mxGeometry y="10" relative="1" as="geometry">
            <mxPoint as="offset" />
            <mxPoint x="60" y="439.44" as="sourcePoint" />
            <mxPoint x="320" y="340" as="targetPoint" />
            <Array as="points">
              <mxPoint x="120" y="440" />
              <mxPoint x="120" y="340" />
            </Array>
          </mxGeometry>
        </mxCell>
        <mxCell id="hhmNKbWDUIImjEml3qDQ-15" style="edgeStyle=orthogonalEdgeStyle;rounded=0;orthogonalLoop=1;jettySize=auto;html=1;exitX=0.5;exitY=1;exitDx=0;exitDy=0;entryX=0.5;entryY=0;entryDx=0;entryDy=0;endArrow=block;endFill=1;" edge="1" parent="WIyWlLk6GJQsqaUBKTNV-1" source="WIyWlLk6GJQsqaUBKTNV-11" target="hhmNKbWDUIImjEml3qDQ-13">
          <mxGeometry relative="1" as="geometry" />
        </mxCell>
        <mxCell id="WIyWlLk6GJQsqaUBKTNV-11" value="Select&lt;br&gt;Tourism location" style="rounded=1;whiteSpace=wrap;html=1;fontSize=12;glass=0;strokeWidth=1;shadow=0;" parent="WIyWlLk6GJQsqaUBKTNV-1" vertex="1">
          <mxGeometry x="354" y="310" width="120" height="40" as="geometry" />
        </mxCell>
        <mxCell id="hhmNKbWDUIImjEml3qDQ-33" style="edgeStyle=orthogonalEdgeStyle;rounded=0;orthogonalLoop=1;jettySize=auto;html=1;entryX=0;entryY=0.5;entryDx=0;entryDy=0;exitX=0.5;exitY=1;exitDx=0;exitDy=0;" edge="1" parent="WIyWlLk6GJQsqaUBKTNV-1" source="WIyWlLk6GJQsqaUBKTNV-12" target="hhmNKbWDUIImjEml3qDQ-31">
          <mxGeometry relative="1" as="geometry" />
        </mxCell>
        <mxCell id="WIyWlLk6GJQsqaUBKTNV-12" value="&lt;span style=&quot;font-weight: normal;&quot;&gt;Booking&lt;/span&gt;" style="rounded=1;whiteSpace=wrap;html=1;fontSize=12;glass=0;strokeWidth=1;shadow=0;fontStyle=1" parent="WIyWlLk6GJQsqaUBKTNV-1" vertex="1">
          <mxGeometry x="142.5" y="545" width="120" height="40" as="geometry" />
        </mxCell>
        <mxCell id="hhmNKbWDUIImjEml3qDQ-4" value="Type of travel" style="rhombus;whiteSpace=wrap;html=1;shadow=0;fontFamily=Helvetica;fontSize=12;align=center;strokeWidth=1;spacing=6;spacingTop=-4;" vertex="1" parent="WIyWlLk6GJQsqaUBKTNV-1">
          <mxGeometry x="364" y="130" width="100" height="80" as="geometry" />
        </mxCell>
        <mxCell id="hhmNKbWDUIImjEml3qDQ-11" style="edgeStyle=orthogonalEdgeStyle;rounded=0;orthogonalLoop=1;jettySize=auto;html=1;exitX=0.5;exitY=1;exitDx=0;exitDy=0;entryX=0;entryY=0.5;entryDx=0;entryDy=0;endArrow=block;endFill=1;" edge="1" parent="WIyWlLk6GJQsqaUBKTNV-1">
          <mxGeometry relative="1" as="geometry">
            <mxPoint x="304" y="250" as="sourcePoint" />
            <mxPoint x="354" y="320" as="targetPoint" />
            <Array as="points">
              <mxPoint x="304" y="320" />
            </Array>
          </mxGeometry>
        </mxCell>
        <mxCell id="hhmNKbWDUIImjEml3qDQ-5" value="Rent car/ bike" style="rounded=1;whiteSpace=wrap;html=1;fontSize=12;glass=0;strokeWidth=1;shadow=0;" vertex="1" parent="WIyWlLk6GJQsqaUBKTNV-1">
          <mxGeometry x="244" y="220" width="120" height="40" as="geometry" />
        </mxCell>
        <mxCell id="hhmNKbWDUIImjEml3qDQ-12" style="edgeStyle=orthogonalEdgeStyle;rounded=0;orthogonalLoop=1;jettySize=auto;html=1;exitX=0.5;exitY=1;exitDx=0;exitDy=0;entryX=1;entryY=0.5;entryDx=0;entryDy=0;endArrow=block;endFill=1;" edge="1" parent="WIyWlLk6GJQsqaUBKTNV-1">
          <mxGeometry relative="1" as="geometry">
            <mxPoint x="524" y="250" as="sourcePoint" />
            <mxPoint x="473.9999999999999" y="320" as="targetPoint" />
            <Array as="points">
              <mxPoint x="520" y="250" />
              <mxPoint x="520" y="320" />
            </Array>
          </mxGeometry>
        </mxCell>
        <mxCell id="hhmNKbWDUIImjEml3qDQ-6" value="Public Transport" style="rounded=1;whiteSpace=wrap;html=1;fontSize=12;glass=0;strokeWidth=1;shadow=0;" vertex="1" parent="WIyWlLk6GJQsqaUBKTNV-1">
          <mxGeometry x="464" y="220" width="120" height="40" as="geometry" />
        </mxCell>
        <mxCell id="hhmNKbWDUIImjEml3qDQ-7" value="&lt;span style=&quot;font-weight: normal;&quot;&gt;Yes&lt;/span&gt;" style="rounded=0;html=1;jettySize=auto;orthogonalLoop=1;fontSize=11;endArrow=block;endFill=1;endSize=8;strokeWidth=1;shadow=0;labelBackgroundColor=none;edgeStyle=orthogonalEdgeStyle;exitX=0;exitY=0.5;exitDx=0;exitDy=0;fontStyle=1;fillColor=#d5e8d4;strokeColor=#82b366;" edge="1" parent="WIyWlLk6GJQsqaUBKTNV-1" source="hhmNKbWDUIImjEml3qDQ-4">
          <mxGeometry x="0.4737" y="-20" relative="1" as="geometry">
            <mxPoint as="offset" />
            <mxPoint x="360" y="170" as="sourcePoint" />
            <mxPoint x="300" y="220" as="targetPoint" />
            <Array as="points">
              <mxPoint x="300" y="170" />
            </Array>
          </mxGeometry>
        </mxCell>
        <mxCell id="hhmNKbWDUIImjEml3qDQ-8" value="Yes" style="rounded=0;html=1;jettySize=auto;orthogonalLoop=1;fontSize=11;endArrow=block;endFill=1;endSize=8;strokeWidth=1;shadow=0;labelBackgroundColor=none;edgeStyle=orthogonalEdgeStyle;exitX=1;exitY=0.5;exitDx=0;exitDy=0;fillColor=#d5e8d4;strokeColor=#82b366;" edge="1" parent="WIyWlLk6GJQsqaUBKTNV-1" source="hhmNKbWDUIImjEml3qDQ-4">
          <mxGeometry x="0.5082" y="14" relative="1" as="geometry">
            <mxPoint as="offset" />
            <mxPoint x="600" y="170" as="sourcePoint" />
            <mxPoint x="536" y="220" as="targetPoint" />
            <Array as="points">
              <mxPoint x="536" y="170" />
            </Array>
          </mxGeometry>
        </mxCell>
        <mxCell id="hhmNKbWDUIImjEml3qDQ-9" value="No" style="edgeStyle=orthogonalEdgeStyle;rounded=0;html=1;jettySize=auto;orthogonalLoop=1;fontSize=11;endArrow=block;endFill=1;endSize=8;strokeWidth=1;shadow=0;labelBackgroundColor=none;entryX=0;entryY=0.5;entryDx=0;entryDy=0;exitX=0;exitY=0.5;exitDx=0;exitDy=0;fillColor=#f8cecc;strokeColor=#b85450;" edge="1" parent="WIyWlLk6GJQsqaUBKTNV-1" source="hhmNKbWDUIImjEml3qDQ-5" target="hhmNKbWDUIImjEml3qDQ-30">
          <mxGeometry y="10" relative="1" as="geometry">
            <mxPoint as="offset" />
            <mxPoint x="170" y="240" as="sourcePoint" />
            <mxPoint x="354" y="60" as="targetPoint" />
            <Array as="points">
              <mxPoint x="220" y="240" />
              <mxPoint x="220" y="55" />
            </Array>
          </mxGeometry>
        </mxCell>
        <mxCell id="hhmNKbWDUIImjEml3qDQ-10" value="No" style="edgeStyle=orthogonalEdgeStyle;rounded=0;html=1;jettySize=auto;orthogonalLoop=1;fontSize=11;endArrow=block;endFill=1;endSize=8;strokeWidth=1;shadow=0;labelBackgroundColor=none;entryX=1;entryY=0.5;entryDx=0;entryDy=0;exitX=1;exitY=0.5;exitDx=0;exitDy=0;fillColor=#f8cecc;strokeColor=#b85450;" edge="1" parent="WIyWlLk6GJQsqaUBKTNV-1" source="hhmNKbWDUIImjEml3qDQ-6" target="hhmNKbWDUIImjEml3qDQ-30">
          <mxGeometry x="-0.0249" y="-10" relative="1" as="geometry">
            <mxPoint as="offset" />
            <mxPoint x="589" y="240" as="sourcePoint" />
            <mxPoint x="455.9999999999982" y="55" as="targetPoint" />
            <Array as="points">
              <mxPoint x="610" y="240" />
              <mxPoint x="610" y="55" />
            </Array>
          </mxGeometry>
        </mxCell>
        <mxCell id="hhmNKbWDUIImjEml3qDQ-13" value="Time&lt;br&gt;Required" style="rhombus;whiteSpace=wrap;html=1;shadow=0;fontFamily=Helvetica;fontSize=12;align=center;strokeWidth=1;spacing=6;spacingTop=-4;" vertex="1" parent="WIyWlLk6GJQsqaUBKTNV-1">
          <mxGeometry x="364" y="400" width="100" height="80" as="geometry" />
        </mxCell>
        <mxCell id="hhmNKbWDUIImjEml3qDQ-14" value="Shorter" style="edgeStyle=orthogonalEdgeStyle;rounded=0;html=1;jettySize=auto;orthogonalLoop=1;fontSize=11;endArrow=block;endFill=1;endSize=8;strokeWidth=1;shadow=0;labelBackgroundColor=none;entryX=0;entryY=0.5;entryDx=0;entryDy=0;" edge="1" parent="WIyWlLk6GJQsqaUBKTNV-1">
          <mxGeometry x="0.1711" y="10" relative="1" as="geometry">
            <mxPoint as="offset" />
            <mxPoint x="464" y="439.6" as="sourcePoint" />
            <mxPoint x="560" y="440" as="targetPoint" />
            <Array as="points">
              <mxPoint x="512" y="440" />
              <mxPoint x="560" y="440" />
            </Array>
          </mxGeometry>
        </mxCell>
        <mxCell id="hhmNKbWDUIImjEml3qDQ-17" value="Longer" style="edgeStyle=orthogonalEdgeStyle;rounded=0;html=1;jettySize=auto;orthogonalLoop=1;fontSize=11;endArrow=block;endFill=1;endSize=8;strokeWidth=1;shadow=0;labelBackgroundColor=none;exitX=0;exitY=0.5;exitDx=0;exitDy=0;" edge="1" parent="WIyWlLk6GJQsqaUBKTNV-1" source="hhmNKbWDUIImjEml3qDQ-13">
          <mxGeometry y="-10" relative="1" as="geometry">
            <mxPoint as="offset" />
            <mxPoint x="360" y="440" as="sourcePoint" />
            <mxPoint x="240" y="440" as="targetPoint" />
          </mxGeometry>
        </mxCell>
        <mxCell id="hhmNKbWDUIImjEml3qDQ-20" value="Price" style="rhombus;whiteSpace=wrap;html=1;shadow=0;fontFamily=Helvetica;fontSize=12;align=center;strokeWidth=1;spacing=6;spacingTop=-4;" vertex="1" parent="WIyWlLk6GJQsqaUBKTNV-1">
          <mxGeometry x="165" y="410" width="75" height="60" as="geometry" />
        </mxCell>
        <mxCell id="hhmNKbWDUIImjEml3qDQ-26" style="edgeStyle=orthogonalEdgeStyle;rounded=0;orthogonalLoop=1;jettySize=auto;html=1;exitX=1;exitY=0.5;exitDx=0;exitDy=0;endArrow=block;endFill=1;fillColor=#f8cecc;strokeColor=#b85450;" edge="1" parent="WIyWlLk6GJQsqaUBKTNV-1" source="hhmNKbWDUIImjEml3qDQ-21">
          <mxGeometry relative="1" as="geometry">
            <mxPoint x="474" y="340" as="targetPoint" />
            <Array as="points">
              <mxPoint x="680" y="440" />
              <mxPoint x="680" y="340" />
            </Array>
          </mxGeometry>
        </mxCell>
        <mxCell id="hhmNKbWDUIImjEml3qDQ-21" value="Price" style="rhombus;whiteSpace=wrap;html=1;shadow=0;fontFamily=Helvetica;fontSize=12;align=center;strokeWidth=1;spacing=6;spacingTop=-4;" vertex="1" parent="WIyWlLk6GJQsqaUBKTNV-1">
          <mxGeometry x="560" y="410" width="75" height="60" as="geometry" />
        </mxCell>
        <mxCell id="hhmNKbWDUIImjEml3qDQ-22" value="Yes" style="rounded=0;html=1;jettySize=auto;orthogonalLoop=1;fontSize=11;endArrow=block;endFill=1;endSize=8;strokeWidth=1;shadow=0;labelBackgroundColor=none;edgeStyle=orthogonalEdgeStyle;entryX=0.5;entryY=0;entryDx=0;entryDy=0;fillColor=#d5e8d4;strokeColor=#82b366;" edge="1" parent="WIyWlLk6GJQsqaUBKTNV-1" target="WIyWlLk6GJQsqaUBKTNV-12">
          <mxGeometry y="20" relative="1" as="geometry">
            <mxPoint as="offset" />
            <mxPoint x="202.32" y="470" as="sourcePoint" />
            <mxPoint x="202.32" y="510" as="targetPoint" />
            <Array as="points" />
          </mxGeometry>
        </mxCell>
        <mxCell id="hhmNKbWDUIImjEml3qDQ-23" value="Yes" style="rounded=0;html=1;jettySize=auto;orthogonalLoop=1;fontSize=11;endArrow=block;endFill=1;endSize=8;strokeWidth=1;shadow=0;labelBackgroundColor=none;edgeStyle=orthogonalEdgeStyle;entryX=0.5;entryY=0;entryDx=0;entryDy=0;fillColor=#d5e8d4;strokeColor=#82b366;" edge="1" parent="WIyWlLk6GJQsqaUBKTNV-1" target="hhmNKbWDUIImjEml3qDQ-28">
          <mxGeometry x="-0.1997" y="23" relative="1" as="geometry">
            <mxPoint as="offset" />
            <mxPoint x="597.3499999999999" y="470" as="sourcePoint" />
            <mxPoint x="597.3499999999999" y="510" as="targetPoint" />
            <Array as="points" />
          </mxGeometry>
        </mxCell>
        <mxCell id="hhmNKbWDUIImjEml3qDQ-27" value="No" style="text;html=1;align=center;verticalAlign=middle;resizable=0;points=[];autosize=1;strokeColor=none;fillColor=none;" vertex="1" parent="WIyWlLk6GJQsqaUBKTNV-1">
          <mxGeometry x="620" y="315" width="40" height="30" as="geometry" />
        </mxCell>
        <mxCell id="hhmNKbWDUIImjEml3qDQ-34" style="edgeStyle=orthogonalEdgeStyle;rounded=0;orthogonalLoop=1;jettySize=auto;html=1;entryX=1;entryY=0.5;entryDx=0;entryDy=0;exitX=0.5;exitY=1;exitDx=0;exitDy=0;" edge="1" parent="WIyWlLk6GJQsqaUBKTNV-1" source="hhmNKbWDUIImjEml3qDQ-28" target="hhmNKbWDUIImjEml3qDQ-31">
          <mxGeometry relative="1" as="geometry" />
        </mxCell>
        <mxCell id="hhmNKbWDUIImjEml3qDQ-28" value="Booking" style="rounded=1;whiteSpace=wrap;html=1;fontSize=12;glass=0;strokeWidth=1;shadow=0;" vertex="1" parent="WIyWlLk6GJQsqaUBKTNV-1">
          <mxGeometry x="537.5" y="545" width="120" height="40" as="geometry" />
        </mxCell>
        <mxCell id="hhmNKbWDUIImjEml3qDQ-30" value="Start" style="ellipse;whiteSpace=wrap;html=1;" vertex="1" parent="WIyWlLk6GJQsqaUBKTNV-1">
          <mxGeometry x="376" y="30" width="75" height="50" as="geometry" />
        </mxCell>
        <mxCell id="hhmNKbWDUIImjEml3qDQ-31" value="Finish" style="ellipse;whiteSpace=wrap;html=1;" vertex="1" parent="WIyWlLk6GJQsqaUBKTNV-1">
          <mxGeometry x="376" y="630" width="75" height="50" as="geometry" />
        </mxCell>
      </root>
    </mxGraphModel>
  </diagram>
</mxfile>
